#!OML:ASF E:\Steps\Project 1\Capture day 1\Session 2\Subject.ASF
:FULLY-SPECIFIED
:DEGREES
98
root 16.3968 17.9777 20.7604 -154.023 -3.30568 178.232
lowerback -29.6165 -2.47853 -7.20415
upperback -0.843893 -1.42084 0.190679
thorax 14.8279 -1.37259 3.49898
lowerneck -5.81692 -1.29591 0.272895
upperneck 10.8827 -2.45039 3.35133
head 4.71022 -1.13978 0.937276
rclavicle -1.44119e-014 -9.93923e-015
rhumerus -38.7266 -19.4988 -76.9905
rradius 32.94
rwrist -2.35634
rhand -5.68265 -53.4501
rfingers 7.12502
rthumb 20.1374 -82.4265
lclavicle -1.44119e-014 -9.93923e-015
lhumerus -30.4406 4.40102 81.3209
lradius 25.1286
lwrist -1.87885
lhand -21.3159 -12.3336
lfingers 7.12502
lthumb 5.06936 17.5857
rfemur -22.9885 5.78205 21.1407
rtibia 7.89933
rfoot -20.9254 -4.8801
rtoes -16.1385
lfemur -23.9607 -8.15953 -21.2272
ltibia 9.39197
lfoot -6.62524 -6.1328
ltoes -13.3282
99
root 16.3995 17.9791 20.7631 -154.025 -3.32941 178.218
lowerback -29.6286 -2.47733 -7.19702
upperback -0.811219 -1.41431 0.18865
thorax 14.8711 -1.36924 3.49552
lowerneck -5.69007 -1.21304 0.161685
upperneck 10.9211 -2.34934 3.47406
head 4.70065 -1.09259 1.00573
rclavicle 1.98785e-015 6.75868e-015
rhumerus -38.8125 -19.2305 -77.0494
rradius 33.0693
rwrist -2.59628
rhand -5.65467 -52.7932
rfingers 7.12502
rthumb 20.1643 -81.7667
lclavicle 1.98785e-015 6.75868e-015
lhumerus -30.4364 4.58388 81.2573
lradius 25.0984
lwrist -2.05219
lhand -21.2129 -12.5147
lfingers 7.12502
lthumb 5.16875 17.4022
rfemur -23.0401 5.76343 21.1385
rtibia 8.01121
rfoot -20.9809 -4.7951
rtoes -15.6172
lfemur -23.9843 -8.04842 -21.2526
ltibia 9.46306
lfoot -6.70645 -6.23642
ltoes -12.4168
100
root 16.401 17.9797 20.7645 -154.023 -3.32575 178.212
lowerback -29.637 -2.4632 -7.19704
upperback -0.805109 -1.39434 0.191145
thorax 14.88 -1.36054 3.50619
lowerneck -5.70739 -1.18661 0.367685
upperneck 11.2669 -2.35068 3.31597
head 4.82541 -1.0965 0.915168
rclavicle -5.31749e-015 0
rhumerus -38.9345 -19.1514 -77.0167
rradius 33.1533
rwrist -2.61985
rhand -5.4301 -52.5362
rfingers 7.12502
rthumb 20.3801 -81.4867
lclavicle -5.31749e-015 0
lhumerus -30.4626 4.75225 81.2156
lradius 25.0693
lwrist -2.22656
lhand -21.0835 -12.7242
lfingers 7.12502
lthumb 5.29372 17.1897
rfemur -23.1321 5.92379 21.0973
rtibia 8.19442
rfoot -21.0793 -4.83242
rtoes -14.6397
lfemur -24.0017 -8.03497 -21.2508
ltibia 9.51141
lfoot -6.83249 -6.23979
ltoes -12.3347
101
root 16.4034 17.9779 20.765 -154.032 -3.42081 178.254
lowerback -29.5318 -2.44519 -7.08957
upperback -0.88334 -1.42319 0.16576
thorax 14.7411 -1.36267 3.41108
lowerneck -5.5721 -1.07101 0.568516
upperneck 11.9444 -2.24864 3.23853
head 4.5248 -1.03647 0.76639
rclavicle 1.19271e-015 1.98785e-015
rhumerus -39.1854 -18.9976 -77.0698
rradius 33.2733
rwrist -2.68879
rhand -5.50312 -52.633
rfingers 7.12502
rthumb 20.3099 -81.5911
lclavicle 1.19271e-015 1.98785e-015
lhumerus -30.6588 4.7877 81.0883
lradius 25.0985
lwrist -2.34583
lhand -21.2094 -12.8757
lfingers 7.12502
lthumb 5.17217 17.0412
rfemur -23.1199 5.91539 21.1783
rtibia 8.21951
rfoot -21.1207 -4.82176
rtoes -14.2442
lfemur -24.0014 -8.08462 -21.1847
ltibia 9.51023
lfoot -6.8446 -6.28151
ltoes -12.6082
102
root 16.4045 17.9778 20.7654 -154.052 -3.43292 178.194
lowerback -29.5702 -2.46513 -7.09472
upperback -0.800337 -1.42747 0.14583
thorax 14.8562 -1.36503 3.38979
lowerneck -5.55383 -0.889716 0.493061
upperneck 11.9515 -1.99688 3.25876
head 4.52095 -0.914542 0.79915
rclavicle 7.25564e-015 -2.3059e-014
rhumerus -39.0618 -18.7615 -77.2088
rradius 33.3086
rwrist -2.83034
rhand -5.50217 -52.607
rfingers 7.12502
rthumb 20.3109 -81.565
lclavicle 7.25564e-015 -2.3059e-014
lhumerus -30.5997 4.78126 81.0704
lradius 25.1302
lwrist -2.38863
lhand -21.4977 -12.671
lfingers 7.12502
lthumb 4.89379 17.2525
rfemur -23.1593 5.74088 21.1553
rtibia 8.34044
rfoot -21.1884 -4.64109
rtoes -14.3215
lfemur -23.9592 -8.15507 -21.2416
ltibia 9.43692
lfoot -6.77261 -6.28389
ltoes -11.4037
103
root 16.4075 17.9791 20.7683 -154.083 -3.48941 178.115
lowerback -29.3994 -2.49497 -7.12536
upperback -0.78863 -1.46136 0.139692
thorax 14.7957 -1.37768 3.39097
lowerneck -5.64103 -0.779259 0.447872
upperneck 11.9392 -1.83296 3.23088
head 4.52941 -0.83394 0.806885
rclavicle 2.48481e-015 -2.46493e-014
rhumerus -38.981 -18.7127 -77.2121
rradius 33.1925
rwrist -2.77183
rhand -5.38309 -51.8182
rfingers 7.12502
rthumb 20.4253 -80.7639
lclavicle 2.48481e-015 -2.46493e-014
lhumerus -30.5791 4.85917 81.0542
lradius 25.1365
lwrist -2.48592
lhand -21.5976 -12.2908
lfingers 7.12502
lthumb 4.79737 17.6348
rfemur -23.1986 5.63957 21.1085
rtibia 8.47851
rfoot -21.2726 -4.61563
rtoes -14.2537
lfemur -23.9477 -8.22302 -21.3021
ltibia 9.43913
lfoot -6.64118 -6.34183
ltoes -10.1953
104
root 16.4112 17.9804 20.7719 -154.105 -3.55845 178.021
lowerback -29.3936 -2.49626 -7.17678
upperback -0.757142 -1.43301 0.0832145
thorax 14.8251 -1.36688 3.36847
lowerneck -5.53371 -0.732037 0.483854
upperneck 12.066 -1.80336 3.32433
head 4.55041 -0.818262 0.831286
rclavicle 1.09332e-015 -5.1684e-015
rhumerus -39.0212 -18.8828 -77.246
rradius 33.2522
rwrist -2.80953
rhand -5.59992 -52.1
rfingers 7.12502
rthumb 20.2169 -81.068
lclavicle 1.09332e-015 -5.1684e-015
lhumerus -30.5411 4.8443 80.9928
lradius 25.085
lwrist -2.53061
lhand -21.3616 -12.304
lfingers 7.12502
lthumb 5.02524 17.6164
rfemur -23.1902 5.64943 21.0227
rtibia 8.50445
rfoot -21.2913 -4.74426
rtoes -14.0082
lfemur -23.9812 -8.21337 -21.3918
ltibia 9.57474
lfoot -6.72862 -6.46409
ltoes -11.4595
105
root 16.4132 17.9804 20.7736 -154.088 -3.5887 177.977
lowerback -29.379 -2.48649 -7.20459
upperback -0.75736 -1.40868 0.0604466
thorax 14.8147 -1.35698 3.36868
lowerneck -5.44734 -0.485877 0.28849
upperneck 11.9357 -1.48692 3.67474
head 4.49462 -0.654092 0.989049
rclavicle -2.28602e-015 -1.11319e-014
rhumerus -39.102 -19.0873 -77.15
rradius 33.2175
rwrist -2.66025
rhand -5.74088 -51.8106
rfingers 7.12502
rthumb 20.0814 -80.7928
lclavicle -2.28602e-015 -1.11319e-014
lhumerus -30.5271 4.86575 80.9553
lradius 24.9973
lwrist -2.54797
lhand -21.102 -12.6672
lfingers 7.12502
lthumb 5.27587 17.2472
rfemur -23.2667 5.58511 21.0103
rtibia 8.6128
rfoot -21.2853 -4.90292
rtoes -14.8759
lfemur -24.0437 -8.18423 -21.4337
ltibia 9.63303
lfoot -6.86592 -6.58321
ltoes -12.2435
106
root 16.4145 17.9797 20.7746 -154.035 -3.58021 177.989
lowerback -29.4972 -2.42036 -7.10914
upperback -0.686625 -1.32531 -0.0125639
thorax 14.9396 -1.31394 3.26774
lowerneck -5.4923 -0.0120227 -0.0126546
upperneck 11.1073 -0.801081 4.02466
head 4.70368 -0.320061 1.31743
rclavicle 6.41081e-015 1.23246e-014
rhumerus -39.0272 -19.2992 -77.1675
rradius 33.1026
rwrist -2.50992
rhand -5.9546 -51.6995
rfingers 7.12502
rthumb 19.876 -80.7031
lclavicle 6.41081e-015 1.23246e-014
lhumerus -30.3832 4.79271 80.8718
lradius 24.8988
lwrist -2.61445
lhand -21.0902 -12.8193
lfingers 7.12502
lthumb 5.28722 17.0948
rfemur -23.4105 5.55609 21.0482
rtibia 8.77186
rfoot -21.3146 -4.98796
rtoes -15.7888
lfemur -24.1507 -8.22292 -21.4012
ltibia 9.68547
lfoot -6.96209 -6.5704
ltoes -11.8001
107
root 16.4202 17.9786 20.7782 -153.971 -3.7242 178.069
lowerback -29.5348 -2.39694 -6.99059
upperback -0.665103 -1.32572 -0.0266461
thorax 14.981 -1.30576 3.18738
lowerneck -5.45847 0.340122 -0.163756
upperneck 10.9212 -0.317576 4.24081
head 4.61873 -0.0763304 1.44438
rclavicle 2.38542e-015 3.57812e-015
rhumerus -39.0039 -19.4187 -77.1878
rradius 33.0074
rwrist -2.45645
rhand -6.04424 -51.7389
rfingers 7.12502
rthumb 19.7898 -80.7515
lclavicle 2.38542e-015 3.57812e-015
lhumerus -30.3081 4.65433 80.8164
lradius 24.7977
lwrist -2.59898
lhand -21.1706 -12.8497
lfingers 7.12502
lthumb 5.20963 17.0663
rfemur -23.4888 5.64416 21.1537
rtibia 8.80298
rfoot -21.3594 -4.97181
rtoes -15.0057
lfemur -24.3297 -8.31928 -21.2369
ltibia 9.86296
lfoot -7.03861 -6.52327
ltoes -11.2225
